<?xml version="1.0" encoding="UTF-8" standalone="no"?>
<!-- Created with Inkscape (http://www.inkscape.org/) -->

<svg
   xmlns:dc="http://purl.org/dc/elements/1.1/"
   xmlns:cc="http://creativecommons.org/ns#"
   xmlns:rdf="http://www.w3.org/1999/02/22-rdf-syntax-ns#"
   xmlns:svg="http://www.w3.org/2000/svg"
   xmlns="http://www.w3.org/2000/svg"
   xmlns:sodipodi="http://sodipodi.sourceforge.net/DTD/sodipodi-0.dtd"
   xmlns:inkscape="http://www.inkscape.org/namespaces/inkscape"
   width="33.237286mm"
   height="4.8028078mm"
   viewBox="0 0 33.237286 4.8028078"
   version="1.1"
   id="svg8"
   inkscape:version="0.92.2 2405546, 2018-03-11"
   sodipodi:docname="logo_dark.svg">
  <defs
     id="defs2" />
  <sodipodi:namedview
     id="base"
     pagecolor="#ffffff"
     bordercolor="#666666"
     borderopacity="1.0"
     inkscape:pageopacity="0.0"
     inkscape:pageshadow="2"
     inkscape:zoom="37.434429"
     inkscape:cx="117.87007"
     inkscape:cy="9.744891"
     inkscape:document-units="mm"
     inkscape:current-layer="layer1"
     showgrid="false"
     showguides="true"
     inkscape:guide-bbox="true"
     inkscape:window-width="1877"
     inkscape:window-height="1080"
     inkscape:window-x="43"
     inkscape:window-y="0"
     inkscape:window-maximized="1">
    <sodipodi:guide
       position="67.061913,-1.7000643"
       orientation="1,0"
       id="guide4555"
       inkscape:locked="false" />
  </sodipodi:namedview>
  <metadata
     id="metadata5">
    <rdf:RDF>
      <cc:Work
         rdf:about="">
        <dc:format>image/svg+xml</dc:format>
        <dc:type
           rdf:resource="http://purl.org/dc/dcmitype/StillImage" />
        <dc:title></dc:title>
      </cc:Work>
    </rdf:RDF>
  </metadata>
  <g
     inkscape:label="Layer 1"
     inkscape:groupmode="layer"
     id="layer1"
     transform="translate(-0.2811745,-0.31684878)">
    <flowRoot
       xml:space="preserve"
       id="flowRoot3713"
       style="font-style:normal;font-weight:normal;font-size:24px;line-height:1.25;font-family:sans-serif;letter-spacing:0px;word-spacing:0px;fill:#000000;fill-opacity:1;stroke:none"
       transform="scale(0.26458333)"><flowRegion
         id="flowRegion3715"><rect
           id="rect3717"
           width="344.28571"
           height="72.85714"
           x="67.14286"
           y="46.805397" /></flowRegion><flowPara
         id="flowPara3719"></flowPara></flowRoot>    <g
       aria-label="ContentDB"
       transform="scale(0.26458333)"
       style="font-style:normal;font-weight:normal;font-size:24px;line-height:1.25;font-family:sans-serif;letter-spacing:0px;word-spacing:0px;fill:#000000;fill-opacity:1;stroke:none"
       id="flowRoot3721">
      <path
         d="m 15.172082,2.8616017 v 2.496093 q -1.195312,-1.113281 -2.554687,-1.664062 -1.347657,-0.550781 -2.8710942,-0.550781 -3,0 -4.59375,1.839843 -1.59375,1.828125 -1.59375,5.2968753 0,3.457032 1.59375,5.296875 1.59375,1.828125 4.59375,1.828125 1.5234372,0 2.8710942,-0.550781 1.359375,-0.550781 2.554687,-1.664062 v 2.472656 q -1.242187,0.84375 -2.636719,1.265625 -1.382812,0.421875 -2.9296872,0.421875 -3.972656,0 -6.257813,-2.425781 -2.285156,-2.4375 -2.285156,-6.644532 0,-4.2187503 2.285156,-6.6445313 2.285157,-2.4375 6.257813,-2.4375 1.5703122,0 2.9531252,0.421875 1.394531,0.410156 2.613281,1.242188 z"
         id="path3729"
         inkscape:connector-curvature="0"
         style="fill:#ffffff" />
      <path
         d="m 23.843957,5.5686327 c 1.875,0 3.347656,0.609375 4.417969,1.828125 1.070313,1.21875 1.605469,2.9062503 1.605469,5.0625003 0,2.148437 -0.535156,3.835937 -1.605469,5.0625 -1.070313,1.21875 -2.542969,1.828125 -4.417969,1.828125 -1.882813,0 -3.359375,-0.609375 -4.429687,-1.828125 -1.0625,-1.226563 -1.59375,-2.914063 -1.59375,-5.0625 0,-2.15625 0.53125,-3.8437503 1.59375,-5.0625003 1.070312,-1.21875 2.546874,-1.828125 4.429687,-1.828125 z"
         id="path3731"
         inkscape:connector-curvature="0"
         sodipodi:nodetypes="ssscscscs"
         style="fill:#ffffff" />
      <path
         d="m 44.340051,11.088164 v 7.921875 h -2.15625 v -7.851562 q 0,-1.8632823 -0.72656,-2.7890633 -0.72656,-0.925781 -2.17969,-0.925781 -1.746094,0 -2.753906,1.113281 -1.007813,1.113281 -1.007813,3.0351563 v 7.417969 H 33.347863 V 5.8850387 h 2.167969 v 2.039063 q 0.773438,-1.183594 1.816406,-1.769532 1.054693,-0.585937 2.425783,-0.585937 2.26172,0 3.42187,1.40625 1.16016,1.394531 1.16016,4.1132813 z"
         id="path3733"
         inkscape:connector-curvature="0"
         style="fill:#ffffff" />
      <path
         d="m 50.797081,2.1584767 v 3.726562 h 4.44141 v 1.675781 h -4.44141 V 14.68582 q 0,1.605469 0.4336,2.0625 0.44531,0.457032 1.79296,0.457032 h 2.21485 v 1.804687 h -2.21485 q -2.49609,0 -3.44531,-0.925781 -0.94922,-0.9375 -0.94922,-3.398438 V 7.5608197 h -1.58203 v -1.675781 h 1.58203 v -3.726562 z"
         id="path3735"
         inkscape:connector-curvature="0"
         style="fill:#ffffff" />
      <path
         d="m 69.312711,11.908477 v 1.054687 h -9.91407 q 0.14063,2.226563 1.33594,3.398438 1.20703,1.160156 3.35156,1.160156 1.24219,0 2.40235,-0.304688 1.17187,-0.304687 2.32031,-0.914062 v 2.039062 q -1.16016,0.492188 -2.37891,0.75 -1.21875,0.257813 -2.47265,0.257813 -3.14063,0 -4.98047,-1.828125 -1.82813,-1.828125 -1.82813,-4.945313 0,-3.2226563 1.73438,-5.1093753 1.74609,-1.898437 4.69922,-1.898437 2.64843,0 4.18359,1.710937 1.54688,1.699219 1.54688,4.6289073 z m -2.15625,-0.632813 q -0.0234,-1.7695313 -0.9961,-2.8242193 -0.96093,-1.054687 -2.55468,-1.054687 -1.80469,0 -2.89454,1.019531 -1.07812,1.019531 -1.24218,2.8710943 z"
         id="path3737"
         inkscape:connector-curvature="0"
         style="fill:#ffffff" />
      <path
         d="m 83.761921,11.088164 v 7.921875 h -2.15625 v -7.851562 q 0,-1.8632823 -0.72656,-2.7890633 -0.72656,-0.925781 -2.17969,-0.925781 -1.74609,0 -2.7539,1.113281 -1.00781,1.113281 -1.00781,3.0351563 v 7.417969 h -2.16797 V 5.8850387 h 2.16797 v 2.039063 q 0.77343,-1.183594 1.8164,-1.769532 1.05469,-0.585937 2.42578,-0.585937 2.26172,0 3.42188,1.40625 1.16015,1.394531 1.16015,4.1132813 z"
         id="path3739"
         inkscape:connector-curvature="0"
         style="fill:#ffffff" />
      <path
         d="m 90.218961,2.1584767 v 3.726562 h 4.4414 v 1.675781 h -4.4414 V 14.68582 q 0,1.605469 0.43359,2.0625 0.44531,0.457032 1.79297,0.457032 h 2.21484 v 1.804687 h -2.21484 q -2.4961,0 -3.44531,-0.925781 -0.94922,-0.9375 -0.94922,-3.398438 V 7.5608197 h -1.58203 v -1.675781 h 1.58203 v -3.726562 z"
         id="path3741"
         inkscape:connector-curvature="0"
         style="fill:#ffffff" />
      <path
         d="M 99.968961,3.4592577 V 17.064727 h 2.859369 q 3.62109,0 5.29688,-1.640625 1.6875,-1.640625 1.6875,-5.179688 0,-3.5156253 -1.6875,-5.1445313 -1.67579,-1.640625 -5.29688,-1.640625 z m -2.36719,-1.945313 h 4.863279 q 5.08594,0 7.46484,2.121094 2.37891,2.109375 2.37891,6.6093753 0,4.523438 -2.39063,6.644531 -2.39062,2.121094 -7.45312,2.121094 h -4.863279 z"
         id="path3743"
         inkscape:connector-curvature="0"
         style="fill:#ffffff" />
      <path
         d="m 115.2,1.5139397 6.51562,0.200893 c 1.80469,0 2.01421,-0.063584 3.21062,0.6965006 1.08114,0.6868617 0.52805,0.5545949 1.32212,2.1918101 0.46708,0.9630217 0.25391,1.9976228 -0.0675,3.2777568 -0.32143,0.722098 -1.61642,2.4321468 -2.58517,2.5883968 2.11956,-0.03854 2.63555,0.370803 2.93042,1.763471 0.40079,1.892898 -0.0108,3.319666 -0.68146,4.272901 -1.07318,1.525261 -1.15304,1.425277 -3.39808,2.535932 l -7.24649,-0.03157 z"
         id="path3745"
         inkscape:connector-curvature="0"
         sodipodi:nodetypes="ccssccssccc"
         style="fill:#ffffff" />
      <g
         inkscape:label="Layer 1"
         id="layer1-6"
         transform="translate(50.521776,98.657956)">
        <g
           id="g4673"
           style="fill:#333000;fill-opacity:1"
           transform="matrix(0.1560698,0,0,0.1560698,-30.379462,-90.175704)">
          <path
             inkscape:connector-curvature="0"
             style="fill:#333000;fill-opacity:1;stroke:none;stroke-width:1;stroke-linecap:square;stroke-linejoin:miter;stroke-miterlimit:4;stroke-dasharray:none;stroke-dashoffset:0;stroke-opacity:1"
             d="M 6.1513775e-7,16 3.2110204e-7,28 21.035899,40.145082 l 21,-12.414519 V 16.269437 L 20.78461,4 Z"
             id="path3047"
             transform="translate(3.4641013,6)"
             sodipodi:nodetypes="ccccccc" />
          <g
             id="g5691"
             style="fill:#333000;stroke:none;stroke-linejoin:miter;fill-opacity:1">
            <g
               id="g3858"
               style="fill:#333000;stroke:none;stroke-linejoin:miter;fill-opacity:1">
              <path
                 inkscape:connector-curvature="0"
                 style="fill:#333000;fill-opacity:1;stroke:none;stroke-width:1;stroke-linecap:round;stroke-linejoin:miter;stroke-miterlimit:4;stroke-dasharray:none;stroke-dashoffset:0;stroke-opacity:1"
                 d="M 9.9641015,13.752777 17.320508,18 23.964101,14.164319 V 5.8356805 L 17.320508,2 9.9641015,6.2472233 Z"
                 id="path3837"
                 transform="translate(-3.4641015,2)"
                 sodipodi:nodetypes="ccccccc" />
            </g>
          </g>
          <g
             id="g5686"
             transform="translate(-4.2591582e-7,2)"
             style="fill:#333000;stroke:none;stroke-linejoin:miter;fill-opacity:1">
            <path
               inkscape:connector-curvature="0"
               style="fill:#333000;fill-opacity:1;stroke:none;stroke-width:1;stroke-linecap:round;stroke-linejoin:miter;stroke-miterlimit:4;stroke-dasharray:none;stroke-dashoffset:0;stroke-opacity:1"
               d="M 15.71539,21.073285 17.320508,22 18.71539,21.194664 V 12.805336 L 17.320508,12 15.71539,13.073285 Z"
               id="path3853"
               sodipodi:nodetypes="ccccccc"
               transform="translate(20.78461)" />
          </g>
        </g>
      </g>
    </g>
    <path
       style="fill:#333000;fill-opacity:1;stroke:none;stroke-width:0.26458332px;stroke-linecap:butt;stroke-linejoin:miter;stroke-opacity:1"
       d="m 31.30866,0.94815285 1.139835,-0.0059 -0.185407,2.24859435 0.916192,0 -1.343882,1.6250306 -1.186045,-1.6372386 0.916747,0.00707 z"
       id="path3748"
       inkscape:connector-curvature="0"
       sodipodi:nodetypes="cccccccc" />
  </g>
</svg>
